<svg width="721" height="701" viewBox="0 0 721 701" fill="none" xmlns="http://www.w3.org/2000/svg">
<path fill-rule="evenodd" clip-rule="evenodd" d="M720.786 0.937057C720.789 0.933434 720.79 0.930717 720.014 0.463386C719.239 -0.00394686 719.238 -0.00304302 719.236 0.000579716L719.227 0.015077L719.191 0.0739484C719.159 0.127384 719.111 0.20707 719.046 0.31213C718.917 0.524065 718.723 0.839252 718.465 1.25677C717.948 2.09181 717.172 3.33169 716.142 4.95105C714.08 8.18797 710.995 12.9383 706.908 18.9864C698.733 31.0819 686.546 48.3659 670.506 69.1097C638.424 110.597 590.933 165.914 529.298 221.23C406.018 331.868 226.225 442.438 0.0166016 442.438V444.249C226.84 444.249 407.047 333.379 530.508 222.577C592.242 167.173 639.807 111.77 671.939 70.2174C688.005 49.441 700.214 32.1252 708.409 20.0008C712.506 13.9381 715.599 9.17424 717.669 5.92377C718.704 4.29897 719.484 3.05183 720.005 2.21045C720.265 1.79021 720.461 1.47142 720.592 1.25677C720.657 1.149 720.707 1.06838 720.74 1.01404L720.777 0.952453L720.786 0.937057ZM720.7 134.191C720.702 134.188 720.704 134.187 720.014 133.599C719.325 133.012 719.324 133.013 719.322 133.015L719.314 133.025L719.278 133.067L719.215 133.14L719.134 133.234C719.079 133.298 719.012 133.375 718.933 133.466L718.807 133.611C718.731 133.699 718.646 133.796 718.553 133.902C718.037 134.491 717.262 135.368 716.232 136.513C714.172 138.801 711.089 142.161 707.003 146.439C698.832 154.994 686.648 167.221 670.611 181.895C638.536 211.243 591.05 250.381 529.418 289.518C406.15 367.794 226.318 446.06 0.0166016 446.06V447.872C226.749 447.872 406.915 369.455 530.388 291.047C592.125 251.844 639.695 212.638 671.834 183.231C687.903 168.527 700.116 156.272 708.313 147.69C712.412 143.399 715.507 140.026 717.579 137.725C718.614 136.573 719.394 135.69 719.916 135.094C720.177 134.796 720.373 134.57 720.505 134.418C720.57 134.342 720.62 134.285 720.653 134.246L720.69 134.202L720.7 134.191ZM720.014 225.979C720.597 226.672 720.596 226.674 720.594 226.675L720.584 226.684L720.546 226.715L720.448 226.797L720.397 226.838C720.266 226.948 720.069 227.11 719.808 227.324C719.286 227.751 718.506 228.384 717.47 229.21C715.397 230.861 712.301 233.279 708.202 236.354C700.003 242.507 687.789 251.292 671.719 261.831C639.579 282.911 592.01 311.011 530.278 339.108C406.812 395.304 226.685 451.494 0.0166016 451.494V449.683C226.381 449.683 406.253 393.569 529.527 337.46C591.165 309.405 638.653 281.352 670.726 260.317C686.762 249.799 698.944 241.037 707.115 234.906C711.2 231.841 714.282 229.433 716.341 227.793C717.371 226.973 718.145 226.345 718.661 225.923C718.771 225.832 718.87 225.751 718.957 225.679C719.073 225.584 719.167 225.506 719.241 225.445C719.305 225.392 719.353 225.351 719.385 225.325L719.42 225.295L719.429 225.288C719.429 225.288 719.43 225.287 719.448 225.308C719.456 225.318 719.469 225.332 719.487 225.354C719.521 225.394 719.575 225.457 719.661 225.56L720.014 225.979ZM720.401 327.329C720.401 327.329 720.402 327.329 720.401 327.327C720.401 327.325 720.399 327.321 720.396 327.313C720.389 327.298 720.375 327.267 720.345 327.204C720.294 327.095 720.197 326.891 720.014 326.51C719.838 326.14 719.741 325.939 719.687 325.828C719.662 325.776 719.647 325.745 719.637 325.725C719.628 325.706 719.624 325.698 719.622 325.696C719.621 325.694 719.621 325.694 719.621 325.694L719.612 325.698L719.577 325.716L719.432 325.784C719.304 325.844 719.11 325.935 718.852 326.055C718.336 326.295 717.562 326.653 716.532 327.12C714.472 328.051 711.389 329.421 707.303 331.164C699.131 334.651 686.946 339.634 670.906 345.614C638.827 357.577 591.328 373.53 529.676 389.484C406.37 421.392 226.448 453.306 0.0166016 453.306V455.117C226.618 455.117 406.695 423.18 530.129 391.237C591.847 375.267 639.405 359.294 671.539 347.312C687.606 341.321 699.817 336.328 708.014 332.831C712.112 331.082 715.207 329.707 717.279 328.77C718.315 328.301 719.095 327.94 719.617 327.697C719.878 327.576 720.074 327.484 720.206 327.422L720.354 327.351L720.392 327.333L720.401 327.329ZM720.014 407.116C720.137 407.763 720.17 407.94 720.178 407.988C720.181 408.006 720.18 408.006 720.18 408.006L720.171 408.008L720.133 408.015L719.986 408.043C719.855 408.068 719.659 408.104 719.399 408.152L719.155 408.197L718.855 408.253C718.69 408.282 718.508 408.316 718.312 408.351C717.949 408.417 717.533 408.493 717.066 408.577C714.997 408.949 711.905 409.494 707.81 410.188C699.619 411.576 687.415 413.558 671.355 415.936C639.236 420.693 591.694 427.035 529.995 433.376C406.597 446.059 226.567 458.74 0.0166016 458.74V456.929C226.5 456.929 406.467 444.251 529.81 431.574C591.481 425.236 638.996 418.898 671.09 414.145C687.137 411.768 699.328 409.789 707.507 408.402C711.596 407.709 714.682 407.165 716.745 406.794C717.777 406.609 718.552 406.467 719.07 406.371C719.329 406.323 719.523 406.287 719.652 406.263L719.797 406.236L719.834 406.228L719.842 406.227C719.842 406.227 719.843 406.227 719.847 406.244C719.851 406.261 719.857 406.294 719.87 406.358L719.897 406.501C719.922 406.632 719.96 406.828 720.014 407.116ZM720.004 456.023C720.006 456.023 720.007 456.023 720.014 456.929C720.021 457.834 720.02 457.834 720.018 457.834H720.009H719.994L719.972 457.835H719.945H719.911H719.872L719.826 457.836H719.774L719.716 457.837H719.652L719.582 457.838H719.506L719.424 457.839L719.336 457.84L719.241 457.841H719.141L719.035 457.841L718.922 457.842L718.804 457.843L718.679 457.844L718.549 457.845L718.412 457.847L718.27 457.848L718.121 457.849L717.966 457.85L717.806 457.851L717.639 457.852L717.466 457.853L717.288 457.855L717.103 457.856L716.912 457.858L716.716 457.86L716.513 457.861L716.304 457.862L716.09 457.864L715.869 457.866L715.643 457.868L715.41 457.87L715.171 457.871L714.927 457.873L714.676 457.875L714.42 457.877L714.158 457.879L713.889 457.88L713.615 457.882L713.335 457.885L713.049 457.887L712.757 457.89L712.459 457.891L712.155 457.894L711.845 457.896L711.529 457.899L711.207 457.901L710.88 457.903L710.546 457.906L710.207 457.909L709.861 457.911L709.51 457.914L709.153 457.917L708.79 457.919L708.421 457.922L708.046 457.925L707.665 457.928L707.279 457.93L706.886 457.934L706.488 457.937L706.084 457.939L705.673 457.943L705.257 457.946L704.836 457.949L704.408 457.952L703.975 457.956L703.535 457.959L703.09 457.962L702.639 457.966L702.182 457.969L701.72 457.973L701.251 457.976L700.777 457.979L700.296 457.983L699.81 457.987L699.319 457.991L698.821 457.995L698.318 457.998L697.808 458.002L697.293 458.006L696.773 458.01L696.246 458.014L695.714 458.018L695.175 458.022L694.631 458.026L694.082 458.03L693.526 458.034L692.965 458.039L692.398 458.043L691.825 458.047L691.247 458.052L690.662 458.056L690.072 458.061L689.476 458.065L688.875 458.07L688.267 458.074L687.654 458.079L687.036 458.083L686.411 458.088L685.781 458.092L685.145 458.098L684.503 458.102L683.856 458.108L683.203 458.112L682.544 458.117L681.879 458.122L681.209 458.128L680.533 458.132L679.852 458.138L679.164 458.143L678.471 458.148L677.772 458.153L677.068 458.159L676.358 458.164L675.642 458.169L674.921 458.175L674.194 458.18L673.461 458.186L672.723 458.191L671.979 458.197L671.229 458.203L670.474 458.208L669.713 458.214L668.946 458.22L668.174 458.226L667.396 458.232L666.613 458.237L665.824 458.244L665.029 458.249L664.228 458.255L663.422 458.262L662.611 458.268L661.794 458.273L660.971 458.28L660.142 458.286L659.308 458.293L658.469 458.299L657.624 458.305L656.773 458.312L655.917 458.318L655.055 458.325L654.187 458.331L653.314 458.338L652.435 458.344L651.551 458.351L650.661 458.358L649.766 458.365L648.865 458.371L647.959 458.379L647.047 458.385L646.129 458.392L645.206 458.399L644.278 458.406L643.343 458.413L642.404 458.42L641.459 458.427L640.508 458.435L639.552 458.442L638.59 458.449L637.623 458.456L636.65 458.464L635.672 458.471L634.688 458.478L633.699 458.485L632.704 458.494L631.704 458.501L630.698 458.508L629.687 458.516L628.67 458.523L627.648 458.532L626.62 458.539L625.588 458.547L624.549 458.555L623.505 458.562L622.455 458.571L621.401 458.579L620.34 458.587L619.274 458.595L618.203 458.603L617.126 458.611L616.044 458.62L614.957 458.628L613.864 458.636L612.765 458.644L611.661 458.652L610.552 458.66L609.438 458.669L608.318 458.677L607.192 458.686L606.061 458.695L604.925 458.703L603.783 458.712L602.636 458.72L601.483 458.729L600.326 458.738L599.162 458.746L597.994 458.755L596.82 458.764L595.641 458.773L594.456 458.783L593.266 458.791L592.071 458.8L590.87 458.809L589.664 458.818L588.453 458.828L587.236 458.837L586.014 458.846L584.786 458.855L583.553 458.864L582.315 458.874L581.072 458.883L579.823 458.892L578.569 458.902L577.31 458.911L576.044 458.921L574.775 458.931L573.5 458.94L572.219 458.95L570.933 458.96L569.641 458.969L568.345 458.979L567.043 458.989L565.736 458.999L564.424 459.009L563.106 459.019L561.783 459.029L560.455 459.039L559.121 459.049L557.783 459.059L556.439 459.069L555.089 459.08L553.735 459.09L552.375 459.1L551.01 459.11L549.64 459.12L548.265 459.13L546.884 459.141L545.498 459.151L544.107 459.162L542.711 459.173L541.31 459.183L539.902 459.194L538.49 459.205L537.073 459.215L535.651 459.226L534.224 459.236L532.791 459.247L531.353 459.258L529.909 459.269L528.461 459.28L527.008 459.292L525.549 459.302L524.085 459.313L522.616 459.324L521.142 459.335L519.663 459.347L518.178 459.358L516.689 459.369L515.193 459.38L513.694 459.392L512.188 459.403L510.678 459.415L509.163 459.426L507.642 459.437L506.117 459.449L504.585 459.46L503.05 459.472L501.509 459.484L499.963 459.495L498.412 459.507L496.855 459.519L495.293 459.531L493.727 459.542L492.155 459.554L490.578 459.566L488.996 459.578L487.41 459.59L485.817 459.602L484.221 459.614L482.619 459.626L481.011 459.638L479.399 459.65L477.782 459.663L476.159 459.675L474.531 459.687L472.899 459.699L471.261 459.712L469.619 459.724L467.971 459.737L466.318 459.749L464.66 459.762L462.998 459.774L461.329 459.787L459.657 459.8L457.978 459.812L456.296 459.825L454.608 459.838L452.915 459.85L451.217 459.863L449.514 459.876L447.806 459.889L446.094 459.902L444.375 459.915L442.652 459.928L440.924 459.941L439.191 459.954L437.454 459.967L435.711 459.98L433.963 459.993L432.21 460.007L430.453 460.02L428.69 460.033L426.922 460.047L425.149 460.06L423.371 460.073L421.589 460.087L419.801 460.1L418.009 460.114L416.212 460.127L414.41 460.141L412.602 460.155L410.79 460.168L408.973 460.182L407.151 460.195L405.324 460.21L403.493 460.223L401.657 460.237L399.814 460.252L397.968 460.265L396.117 460.279L394.26 460.293L392.399 460.307L390.533 460.321L388.662 460.335L386.787 460.349L384.905 460.364L383.02 460.377L381.13 460.392L379.234 460.406L377.334 460.421L375.43 460.435L373.52 460.45L371.605 460.464L369.685 460.479L367.76 460.493L365.831 460.508L363.898 460.522L361.959 460.537L360.015 460.551L358.066 460.566L356.113 460.581L354.155 460.596L352.192 460.61L350.224 460.626L348.252 460.64L346.275 460.655L344.292 460.67L342.305 460.685L340.314 460.7L338.317 460.715L336.315 460.731L334.309 460.745L332.299 460.761L330.283 460.776L328.262 460.791L326.237 460.807L324.207 460.822L322.172 460.838L320.133 460.853L318.089 460.868L316.039 460.884L313.986 460.899L311.928 460.914L309.865 460.93L307.796 460.945L305.724 460.962L303.646 460.977L301.564 460.992L299.478 461.009L297.385 461.024L295.29 461.04L293.189 461.056L291.083 461.072L288.973 461.087L286.857 461.104L284.738 461.12L282.613 461.135L280.484 461.152L278.35 461.168L276.212 461.184L274.069 461.2L271.921 461.216L269.768 461.232L267.611 461.249L265.449 461.265L263.283 461.281L261.112 461.298L258.937 461.314L256.756 461.331L254.571 461.347L252.381 461.364L250.187 461.38L247.987 461.397L245.784 461.414L243.576 461.431L241.363 461.447L239.145 461.463L236.924 461.481L234.697 461.497L232.465 461.514L230.23 461.531L227.99 461.548L225.744 461.565L223.495 461.582L221.241 461.599L218.982 461.615L216.718 461.633L214.45 461.65L212.178 461.667L209.9 461.684L207.619 461.702L205.333 461.719L203.041 461.736L200.746 461.753L198.446 461.771L196.141 461.788L193.833 461.806L191.519 461.823L189.201 461.841L186.878 461.858L184.551 461.875L182.219 461.894L179.883 461.911L177.543 461.929L175.197 461.946L172.848 461.964L170.493 461.982L168.135 462L165.771 462.018L163.403 462.036L161.031 462.053L158.654 462.071L156.273 462.089L153.887 462.107L151.497 462.125L149.102 462.143L146.703 462.162L144.3 462.18L141.891 462.198L139.479 462.216L137.062 462.234L134.641 462.252L132.214 462.271L129.784 462.289L127.349 462.307L124.91 462.326L122.466 462.345L120.018 462.363L117.565 462.382L115.108 462.4L112.648 462.419L110.182 462.437L107.711 462.456L105.237 462.474L102.758 462.493L100.274 462.512L97.7859 462.53L95.2944 462.549L92.7975 462.568L90.2961 462.587L87.7911 462.606L85.2815 462.625L82.7674 462.644L80.2488 462.663L77.7256 462.682L75.1979 462.701L72.6666 462.72L70.1308 462.739L67.5903 462.758L65.0455 462.777L62.496 462.797L59.943 462.816L57.3854 462.835L54.8233 462.854L52.2567 462.874L49.6864 462.893L47.1107 462.913L44.5314 462.932L41.9476 462.952L39.3602 462.971L36.7672 462.991L34.1707 463.011L31.5697 463.03L28.965 463.05L26.3549 463.07L23.7411 463.089L21.1229 463.109L18.5001 463.129L15.8738 463.149L13.2428 463.169L10.6074 463.189L7.96826 463.209L5.32373 463.229L2.67554 463.248L0.0238037 463.268L0.0101929 461.457L2.66199 461.437L5.31018 461.417L7.95465 461.397L10.5938 461.377L13.2292 461.357L15.8602 461.337L18.4865 461.318L21.1093 461.298L23.7276 461.279L26.3413 461.259L28.9505 461.239L31.5561 461.219L34.1572 461.2L36.7537 461.18L39.3466 461.16L41.934 461.141L44.5179 461.121L47.0972 461.102L49.6729 461.082L52.2431 461.063L54.8097 461.044L57.3719 461.024L59.9294 461.005L62.4825 460.986L65.0319 460.966L67.5768 460.947L70.1172 460.928L72.653 460.909L75.1843 460.89L77.712 460.871L80.2352 460.852L82.7538 460.833L85.2679 460.814L87.7775 460.795L90.2825 460.776L92.784 460.757L95.2808 460.738L97.7723 460.719L100.26 460.701L102.743 460.682L105.223 460.663L107.697 460.645L110.168 460.626L112.633 460.607L115.095 460.588L117.552 460.57L120.004 460.551L122.452 460.533L124.897 460.514L127.336 460.496L129.77 460.478L132.201 460.46L134.627 460.441L137.048 460.423L139.465 460.405L141.878 460.386L144.286 460.368L146.69 460.35L149.089 460.332L151.483 460.314L153.873 460.296L156.26 460.278L158.641 460.26L161.017 460.242L163.39 460.224L165.757 460.206L168.121 460.188L170.479 460.171L172.834 460.153L175.183 460.135L177.529 460.117L179.869 460.099L182.206 460.082L184.537 460.064L186.865 460.047L189.188 460.03L191.505 460.012L193.819 459.994L196.128 459.977L198.432 459.96L200.732 459.942L203.028 459.925L205.318 459.907L207.605 459.89L209.886 459.873L212.164 459.856L214.436 459.839L216.704 459.821L218.967 459.805L221.227 459.788L223.481 459.771L225.731 459.753L227.976 459.736L230.216 459.72L232.452 459.703L234.683 459.686L236.91 459.669L239.132 459.652L241.35 459.636L243.562 459.619L245.77 459.602L247.974 459.586L250.173 459.569L252.367 459.552L254.557 459.536L256.742 459.52L258.922 459.503L261.099 459.486L263.269 459.47L265.436 459.454L267.598 459.437L269.755 459.421L271.908 459.405L274.055 459.388L276.199 459.373L278.337 459.357L280.471 459.34L282.6 459.324L284.724 459.309L286.844 459.292L288.959 459.276L291.069 459.261L293.175 459.244L295.276 459.229L297.372 459.213L299.464 459.197L301.551 459.181L303.633 459.166L305.71 459.15L307.782 459.134L309.851 459.119L311.914 459.103L313.973 459.088L316.026 459.072L318.075 459.057L320.119 459.042L322.159 459.026L324.194 459.011L326.223 458.995L328.249 458.98L330.269 458.965L332.285 458.949L334.296 458.934L336.302 458.919L338.303 458.904L340.3 458.888L342.292 458.874L344.279 458.859L346.26 458.844L348.238 458.829L350.211 458.814L352.179 458.799L354.141 458.784L356.099 458.77L358.053 458.754L360.002 458.74L361.945 458.725L363.884 458.711L365.818 458.696L367.747 458.682L369.671 458.668L371.591 458.653L373.506 458.639L375.416 458.624L377.321 458.61L379.221 458.595L381.116 458.581L383.006 458.567L384.892 458.552L386.773 458.538L388.649 458.524L390.52 458.51L392.385 458.495L394.246 458.482L396.103 458.467L397.954 458.454L399.801 458.44L401.642 458.426L403.479 458.412L405.311 458.398L407.138 458.384L408.96 458.37L410.777 458.357L412.589 458.343L414.396 458.33L416.199 458.316L417.995 458.302L419.788 458.289L421.576 458.275L423.358 458.262L425.136 458.248L426.908 458.235L428.676 458.222L430.438 458.208L432.196 458.196L433.95 458.182L435.697 458.168L437.44 458.156L439.178 458.142L440.91 458.13L442.638 458.117L444.362 458.103L446.08 458.091L447.793 458.078L449.501 458.064L451.203 458.052L452.901 458.039L454.594 458.026L456.282 458.014L457.965 458.001L459.643 457.988L461.316 457.976L462.984 457.963L464.647 457.95L466.304 457.938L467.957 457.926L469.604 457.913L471.247 457.9L472.885 457.889L474.518 457.876L476.145 457.863L477.768 457.851L479.385 457.839L480.998 457.827L482.604 457.815L484.207 457.803L485.804 457.791L487.396 457.779L488.983 457.766L490.565 457.755L492.142 457.743L493.713 457.731L495.28 457.719L496.841 457.707L498.398 457.696L499.949 457.684L501.495 457.672L503.036 457.66L504.572 457.649L506.103 457.638L507.628 457.626L509.149 457.614L510.664 457.603L512.175 457.592L513.68 457.581L515.18 457.569L516.675 457.558L518.165 457.546L519.649 457.535L521.128 457.525L522.603 457.513L524.072 457.502L525.535 457.491L526.994 457.48L528.448 457.469L529.896 457.458L531.339 457.447L532.777 457.436L534.209 457.425L535.638 457.415L537.06 457.404L538.477 457.393L539.889 457.382L541.295 457.371L542.697 457.361L544.094 457.351L545.485 457.341L546.871 457.33L548.252 457.319L549.626 457.309L550.997 457.299L552.362 457.288L553.722 457.278L555.076 457.268L556.425 457.257L557.769 457.247L559.108 457.237L560.441 457.227L561.77 457.217L563.093 457.208L564.41 457.198L565.723 457.188L567.03 457.178L568.331 457.168L569.628 457.158L570.919 457.149L572.205 457.139L573.486 457.129L574.761 457.12L576.031 457.11L577.296 457.1L578.555 457.091L579.809 457.082L581.058 457.072L582.302 457.063L583.54 457.053L584.772 457.044L585.999 457.035L587.222 457.025L588.438 457.016L589.65 457.006L590.856 456.997L592.057 456.988L593.253 456.979L594.443 456.971L595.627 456.962L596.807 456.953L597.98 456.944L599.149 456.935L600.312 456.927L601.47 456.918L602.623 456.909L603.769 456.901L604.911 456.891L606.047 456.883L607.178 456.874L608.304 456.866L609.423 456.858L610.538 456.849L611.648 456.841L612.752 456.833L613.85 456.824L614.942 456.816L616.03 456.808L617.112 456.8L618.189 456.792L619.261 456.784L620.327 456.776L621.387 456.767L622.441 456.759L623.491 456.751L624.535 456.744L625.574 456.736L626.606 456.728L627.634 456.72L628.657 456.712L629.673 456.705L630.684 456.698L631.69 456.689L632.69 456.682L633.685 456.675L634.674 456.667L635.658 456.66L636.636 456.652L637.609 456.645L638.576 456.638L639.538 456.631L640.494 456.623L641.445 456.616L642.39 456.609L643.33 456.602L644.264 456.594L645.192 456.588L646.116 456.581L647.033 456.574L647.945 456.567L648.852 456.56L649.752 456.554L650.648 456.546L651.538 456.54L652.422 456.533L653.3 456.526L654.173 456.52L655.041 456.514L655.903 456.507L656.759 456.5L657.61 456.494L658.455 456.488L659.295 456.481L660.129 456.475L660.957 456.469L661.78 456.462L662.597 456.457L663.409 456.45L664.215 456.444L665.015 456.438L665.81 456.432L666.599 456.426L667.383 456.42L668.16 456.414L668.933 456.409L669.699 456.402L670.46 456.397L671.216 456.392L671.965 456.386L672.709 456.38L673.448 456.374L674.18 456.369L674.907 456.363L675.629 456.358L676.344 456.353L677.054 456.347L677.759 456.342L678.458 456.336L679.151 456.332L679.838 456.326L680.52 456.321L681.195 456.316L681.866 456.311L682.53 456.305L683.189 456.301L683.842 456.296L684.489 456.291L685.131 456.286L685.767 456.282L686.397 456.276L687.022 456.272L687.641 456.267L688.254 456.263L688.861 456.258L689.463 456.254L690.058 456.249L690.649 456.245L691.233 456.24L691.811 456.236L692.384 456.231L692.951 456.228L693.513 456.223L694.068 456.219L694.618 456.215L695.162 456.21L695.7 456.207L696.232 456.202L696.759 456.199L697.28 456.195L697.795 456.19L698.304 456.187L698.807 456.183L699.305 456.18L699.797 456.176L700.283 456.172L700.763 456.169L701.237 456.165L701.706 456.161L702.169 456.158L702.625 456.154L703.076 456.151L703.522 456.148L703.961 456.144L704.394 456.141L704.822 456.138L705.244 456.134L705.66 456.132L706.07 456.128L706.474 456.125L706.872 456.122L707.265 456.119L707.651 456.116L708.032 456.113L708.407 456.111L708.776 456.108L709.139 456.105L709.496 456.103L709.847 456.1L710.193 456.097L710.532 456.094L710.866 456.092L711.194 456.09L711.515 456.087L711.831 456.084L712.141 456.083L712.445 456.08L712.743 456.078L713.035 456.075L713.321 456.074L713.601 456.072L713.876 456.069L714.144 456.067L714.406 456.065L714.663 456.064L714.913 456.062L715.158 456.06L715.396 456.058L715.629 456.056L715.855 456.055L716.076 456.053L716.291 456.051L716.499 456.049L716.702 456.048L716.899 456.046L717.089 456.046L717.274 456.044L717.453 456.042L717.625 456.041L717.792 456.04L717.953 456.038L718.107 456.037L718.256 456.036L718.399 456.036L718.535 456.034L718.666 456.033L718.79 456.032L718.909 456.031L719.021 456.03H719.127L719.228 456.029L719.322 456.028L719.41 456.027L719.492 456.027H719.569L719.639 456.026H719.702L719.76 456.025H719.812L719.858 456.024H719.898H719.931H719.959L719.98 456.023H719.995H720.004ZM720.014 699.652C720.597 698.959 720.596 698.958 720.594 698.957L720.584 698.948L720.546 698.917L720.537 698.909L720.458 698.842L720.397 698.793L720.286 698.7L720.16 698.596C720.06 698.514 719.943 698.418 719.808 698.307C719.286 697.88 718.506 697.247 717.47 696.422C715.397 694.77 712.301 692.353 708.202 689.277C700.003 683.124 687.789 674.339 671.719 663.8C639.579 642.72 592.01 614.621 530.278 586.523C406.812 530.327 226.685 474.137 0.0166016 474.137V475.948C226.381 475.948 406.253 532.062 529.527 588.171C591.165 616.227 638.653 644.279 670.726 665.314C686.762 675.832 698.944 684.594 707.115 690.726C711.2 693.79 714.282 696.199 716.341 697.838C717.371 698.659 718.145 699.286 718.661 699.708C718.919 699.92 719.112 700.08 719.241 700.186C719.292 700.229 719.333 700.263 719.364 700.289L719.385 700.306L719.42 700.336L719.429 700.343C719.429 700.343 719.43 700.344 719.473 700.293C719.534 700.223 719.676 700.054 720.014 699.652ZM720.401 597.397C720.404 597.398 720.405 597.398 720.014 598.215C719.623 599.032 719.623 599.032 719.621 599.031L719.612 599.027L719.577 599.011L719.432 598.942C719.304 598.881 719.11 598.791 718.852 598.67C718.641 598.571 718.385 598.454 718.087 598.316C717.904 598.232 717.705 598.14 717.491 598.042C717.2 597.91 716.881 597.764 716.532 597.607C714.472 596.674 711.389 595.305 707.303 593.561C699.131 590.075 686.946 585.092 670.906 579.111C638.827 567.149 591.328 551.196 529.676 535.241C406.37 503.333 226.448 471.42 0.0166016 471.42V469.608C226.618 469.608 406.695 501.545 530.129 533.488C591.847 549.459 639.405 565.431 671.539 577.414C687.606 583.405 699.817 588.398 708.014 591.896C712.112 593.643 715.207 595.018 717.279 595.957C718.315 596.425 719.095 596.785 719.617 597.028C719.764 597.097 719.89 597.156 719.996 597.206C720.078 597.244 720.148 597.277 720.206 597.304L720.354 597.374L720.392 597.392L720.401 597.397ZM720.014 516.704C720.183 515.814 720.182 515.814 720.18 515.814L720.171 515.812L720.133 515.804L719.986 515.777C719.855 515.753 719.659 515.716 719.399 515.668C718.879 515.572 718.1 515.429 717.066 515.243C714.997 514.871 711.905 514.325 707.81 513.632C699.619 512.244 687.415 510.262 671.355 507.883C639.236 503.127 591.694 496.785 529.995 490.443C406.597 477.761 226.567 465.08 0.0166016 465.08V466.891C226.5 466.891 406.467 479.569 529.81 492.246C591.481 498.584 638.996 504.922 671.09 509.675C687.137 512.051 699.328 514.032 707.507 515.418C711.596 516.111 714.682 516.655 716.745 517.025C717.368 517.138 717.898 517.234 718.334 517.313C718.62 517.366 718.865 517.411 719.07 517.449C719.329 517.497 719.523 517.533 719.652 517.557L719.797 517.585L719.834 517.591L719.842 517.593C719.844 517.593 719.845 517.594 720.014 516.704Z" fill="url(#paint0_linear_27_615)"/>
<defs>
<linearGradient id="paint0_linear_27_615" x1="10.8835" y1="340.987" x2="706.809" y2="340.987" gradientUnits="userSpaceOnUse">
<stop offset="0.0182341" stop-color="#334FEA" stop-opacity="0"/>
<stop offset="0.127609" stop-color="#334FEA"/>
<stop offset="0.563305" stop-color="#334FEA" stop-opacity="0.65"/>
<stop offset="0.943305" stop-color="#334FEA" stop-opacity="0"/>
</linearGradient>
</defs>
</svg>
